# xmcd
#
# Track frame offsets:
#       150
#       20871
#       44439
#       65561
#       97948
#       133679
#       170044
#       195326
#
# Disc length: 2947 seconds
#
# Revision: 2
# Processed by: cddbd v1.5.2PL0 Copyright (c) Steve Scherf et al.
# Submitted via: FreeDbEdit v0.1
#
DISCID=6e0b8108
DTITLE=Pat Kelley - In the Moment
DYEAR=2002
DGENRE=Jazz
TTITLE0=Jungle Highway
TTITLE1=Minor Sixth Sense
TTITLE2=Lover's Waltz
TTITLE3=Rapid Transit
TTITLE4=Where We Live
TTITLE5=Walkin' With Grace
TTITLE6=It's You or No One
TTITLE7=Mother and Daughter
EXTD=YEAR: 2002
EXTT0=
EXTT1=
EXTT2=
EXTT3=
EXTT4=
EXTT5=
EXTT6=
EXTT7=
PLAYORDER=
